  <svg width="24" height="24" viewBox="0 0 24 24" fill="#7F7F7F" xmlns="http://www.w3.org/2000/svg">
            <path d="M8.17216 12L2.16016 15.9144V8.08561L8.17216 12ZM15.8282 12L21.8402 15.9144V8.08561L15.8282 12ZM14.9498 12.5736L12.2618 14.3232C12.1826 14.3736 12.0914 14.4 12.0002 14.4C11.909 14.4 11.8178 14.3736 11.7386 14.3232L9.05056 12.5736L2.55856 16.8L2.18176 17.0448C2.29936 17.7216 2.88976 18.24 3.60016 18.24H20.4002C21.1106 18.24 21.701 17.724 21.8186 17.0448L21.4394 16.8L14.9498 12.5736ZM12.0002 13.3464L21.4394 7.20001L21.8186 6.95521C21.701 6.27601 21.1106 5.76001 20.4002 5.76001H3.60016C2.88976 5.76001 2.29936 6.27841 2.18176 6.95521L2.55856 7.20001L12.0002 13.3464Z" />
</svg>