<svg width="24" height="24" viewBox="0 0 24 24" fill="#7F7F7F" xmlns="http://www.w3.org/2000/svg">
  <path d="M12.0442 19.7287C12.348 19.7287 13.323 19.3237 14.718 18.0337C16.9342 15.9937 19.5217 12.4087 19.5217 9.03373C19.5217 7.03864 18.7292 5.12526 17.3184 3.71452C15.9077 2.30378 13.9943 1.51123 11.9992 1.51123C10.0041 1.51123 8.09075 2.30378 6.68001 3.71452C5.26927 5.12526 4.47672 7.03864 4.47672 9.03373C4.47672 14.3362 10.653 19.6162 12.0442 19.7287ZM11.9992 4.55248C12.7083 4.55248 13.4014 4.76274 13.9909 5.15666C14.5805 5.55059 15.04 6.11049 15.3113 6.76556C15.5827 7.42063 15.6537 8.14146 15.5153 8.83688C15.377 9.5323 15.0356 10.1711 14.5342 10.6725C14.0328 11.1738 13.394 11.5153 12.6986 11.6536C12.0032 11.7919 11.2824 11.7209 10.6273 11.4496C9.97223 11.1782 9.41232 10.7188 9.0184 10.1292C8.62448 9.53965 8.41422 8.84653 8.41422 8.13748C8.41521 7.18698 8.79323 6.2757 9.46534 5.6036C10.1374 4.9315 11.0487 4.55347 11.9992 4.55248ZM20.1742 20.4337C20.1742 21.135 17.2905 22.4962 11.9992 22.4962C6.70797 22.4962 3.82422 21.135 3.82422 20.4337C3.82422 19.965 5.17422 19.095 8.18172 18.645C8.23397 18.6367 8.2846 18.6203 8.33172 18.5962C9.74172 19.9275 11.1217 20.7825 11.9542 20.8462H12.0592C13.1842 20.8462 14.823 19.4625 15.483 18.855C15.5655 18.78 15.648 18.6975 15.7305 18.615C15.7587 18.6242 15.7875 18.6317 15.8167 18.6375C18.8242 19.095 20.1742 19.965 20.1742 20.4337Z" />
</svg>